<svg width="120" height="25" viewBox="0 0 120 25" fill="none" xmlns="http://www.w3.org/2000/svg">
    <path d="M53.2285 12.111C53.2285 12.9563 53.097 13.6937 52.834 14.323C52.571 14.9429 52.2 15.4596 51.721 15.8728C51.2419 16.2767 50.669 16.582 50.0021 16.7887C49.3352 16.9859 48.6025 17.0845 47.8041 17.0845C47.4096 17.0845 46.9729 17.0658 46.4938 17.0282C46.0242 17 45.5968 16.9389 45.2117 16.845V7.37695C45.5968 7.28302 46.0242 7.22196 46.4938 7.19379C46.9729 7.15621 47.4096 7.13743 47.8041 7.13743C48.6025 7.13743 49.3352 7.24075 50.0021 7.44739C50.669 7.64465 51.2419 7.94992 51.721 8.3632C52.2 8.7671 52.571 9.28371 52.834 9.91304C53.097 10.533 53.2285 11.2656 53.2285 12.111ZM47.9169 15.8869C49.2131 15.8869 50.1805 15.5582 50.8193 14.9007C51.458 14.2338 51.7773 13.3039 51.7773 12.111C51.7773 10.9181 51.458 9.99288 50.8193 9.33537C50.1805 8.66848 49.2131 8.33503 47.9169 8.33503C47.5317 8.33503 47.2312 8.33972 47.0151 8.34912C46.8085 8.35851 46.6629 8.3679 46.5784 8.37729V15.8447C46.6629 15.8541 46.8085 15.8635 47.0151 15.8728C47.2312 15.8822 47.5317 15.8869 47.9169 15.8869ZM61.6384 13.3368C61.6384 13.9191 61.5538 14.4451 61.3848 14.9148C61.2157 15.3844 60.9762 15.7883 60.6662 16.1265C60.3656 16.4646 60.004 16.7276 59.5813 16.9155C59.1586 17.0939 58.6984 17.1832 58.2006 17.1832C57.7027 17.1832 57.2425 17.0939 56.8198 16.9155C56.3971 16.7276 56.0308 16.4646 55.7208 16.1265C55.4203 15.7883 55.1854 15.3844 55.0164 14.9148C54.8473 14.4451 54.7628 13.9191 54.7628 13.3368C54.7628 12.7638 54.8473 12.2425 55.0164 11.7728C55.1854 11.2938 55.4203 10.8852 55.7208 10.5471C56.0308 10.2089 56.3971 9.95061 56.8198 9.77214C57.2425 9.58428 57.7027 9.49036 58.2006 9.49036C58.6984 9.49036 59.1586 9.58428 59.5813 9.77214C60.004 9.95061 60.3656 10.2089 60.6662 10.5471C60.9762 10.8852 61.2157 11.2938 61.3848 11.7728C61.5538 12.2425 61.6384 12.7638 61.6384 13.3368ZM60.2717 13.3368C60.2717 12.5102 60.0838 11.8574 59.7081 11.3783C59.3418 10.8899 58.8393 10.6457 58.2006 10.6457C57.5618 10.6457 57.0546 10.8899 56.6789 11.3783C56.3126 11.8574 56.1294 12.5102 56.1294 13.3368C56.1294 14.1633 56.3126 14.8208 56.6789 15.3093C57.0546 15.7883 57.5618 16.0278 58.2006 16.0278C58.8393 16.0278 59.3418 15.7883 59.7081 15.3093C60.0838 14.8208 60.2717 14.1633 60.2717 13.3368ZM66.6661 17.1691C66.0743 17.1691 65.553 17.0751 65.1022 16.8873C64.6607 16.6994 64.285 16.4364 63.975 16.0983C63.6744 15.7601 63.449 15.3609 63.2987 14.9007C63.1484 14.431 63.0733 13.9144 63.0733 13.3508C63.0733 12.7873 63.1531 12.2707 63.3128 11.801C63.4819 11.3314 63.7167 10.9275 64.0173 10.5893C64.3179 10.2418 64.6842 9.97409 65.1162 9.78623C65.5577 9.58898 66.0461 9.49036 66.5815 9.49036C66.9103 9.49036 67.239 9.51853 67.5678 9.57489C67.8966 9.63125 68.2112 9.72048 68.5118 9.84259L68.2159 10.9557C68.0187 10.8617 67.7885 10.7866 67.5255 10.7302C67.2719 10.6739 66.9995 10.6457 66.7083 10.6457C65.9757 10.6457 65.4121 10.8758 65.0176 11.3361C64.6325 11.7963 64.44 12.4679 64.44 13.3508C64.44 13.7454 64.4822 14.107 64.5668 14.4357C64.6607 14.7645 64.8016 15.0463 64.9894 15.2811C65.1867 15.5159 65.4356 15.6991 65.7362 15.8306C66.0368 15.9527 66.4031 16.0137 66.8352 16.0137C67.1827 16.0137 67.4974 15.9809 67.7791 15.9151C68.0609 15.8494 68.2817 15.7789 68.4413 15.7038L68.6245 16.8027C68.5494 16.8497 68.4413 16.8967 68.3005 16.9436C68.1596 16.9812 67.9999 17.0141 67.8214 17.0423C67.6429 17.0798 67.4504 17.108 67.2437 17.1268C67.0465 17.155 66.8539 17.1691 66.6661 17.1691ZM75.8643 16.7887C75.5637 16.8638 75.1645 16.9436 74.6667 17.0282C74.1782 17.1127 73.61 17.155 72.9618 17.155C72.3983 17.155 71.9239 17.0751 71.5388 16.9155C71.1537 16.7464 70.8437 16.5116 70.6089 16.211C70.3741 15.9104 70.205 15.5582 70.1017 15.1543C69.9984 14.741 69.9467 14.2854 69.9467 13.7876V9.67352H71.257V13.5058C71.257 14.3982 71.3979 15.0369 71.6797 15.422C71.9615 15.8071 72.4358 15.9997 73.1027 15.9997C73.2436 15.9997 73.3892 15.995 73.5395 15.9856C73.6898 15.9762 73.8307 15.9668 73.9622 15.9574C74.0937 15.9386 74.2111 15.9245 74.3144 15.9151C74.4271 15.8963 74.507 15.8775 74.5539 15.8588V9.67352H75.8643V16.7887ZM78.1216 9.88486C78.4222 9.80972 78.8167 9.72988 79.3051 9.64534C79.803 9.5608 80.3759 9.51853 81.024 9.51853C81.4937 9.51853 81.8882 9.58429 82.2076 9.71579C82.5269 9.83789 82.7946 10.0211 83.0107 10.2653C83.0764 10.2183 83.1797 10.1526 83.3206 10.068C83.4615 9.98348 83.6353 9.90364 83.8419 9.8285C84.0486 9.74397 84.2787 9.67352 84.5323 9.61716C84.7859 9.55141 85.0583 9.51853 85.3495 9.51853C85.9131 9.51853 86.3733 9.60307 86.7303 9.77214C87.0872 9.93182 87.3643 10.162 87.5615 10.4625C87.7682 10.7631 87.9044 11.12 87.9701 11.5333C88.0453 11.9466 88.0828 12.3975 88.0828 12.8859V17H86.7725V13.1677C86.7725 12.7356 86.749 12.3646 86.7021 12.0546C86.6645 11.7447 86.5847 11.4864 86.4626 11.2797C86.3498 11.0731 86.1902 10.9228 85.9835 10.8288C85.7863 10.7255 85.528 10.6739 85.2086 10.6739C84.7671 10.6739 84.4008 10.7349 84.1096 10.857C83.8278 10.9697 83.6353 11.0731 83.532 11.167C83.6071 11.4112 83.6635 11.6789 83.701 11.9701C83.7386 12.2613 83.7574 12.5665 83.7574 12.8859V17H82.4471V13.1677C82.4471 12.7356 82.4236 12.3646 82.3766 12.0546C82.3297 11.7447 82.2451 11.4864 82.123 11.2797C82.0103 11.0731 81.8506 10.9228 81.644 10.8288C81.4467 10.7255 81.1931 10.6739 80.8832 10.6739C80.7517 10.6739 80.6108 10.6786 80.4605 10.688C80.3102 10.6973 80.1646 10.7114 80.0237 10.7302C79.8922 10.7396 79.7701 10.7537 79.6574 10.7725C79.5447 10.7913 79.4695 10.8054 79.4319 10.8148V17H78.1216V9.88486ZM91.5675 17H90.2572V9.67352H91.5675V17ZM90.9053 8.34912C90.6705 8.34912 90.4686 8.27397 90.2995 8.12368C90.1398 7.96401 90.06 7.75266 90.06 7.48966C90.06 7.22666 90.1398 7.02002 90.2995 6.86973C90.4686 6.71005 90.6705 6.63021 90.9053 6.63021C91.1402 6.63021 91.3374 6.71005 91.4971 6.86973C91.6662 7.02002 91.7507 7.22666 91.7507 7.48966C91.7507 7.75266 91.6662 7.96401 91.4971 8.12368C91.3374 8.27397 91.1402 8.34912 90.9053 8.34912ZM93.8208 9.88486C94.1214 9.80972 94.5206 9.72988 95.0184 9.64534C95.5163 9.5608 96.0892 9.51853 96.7373 9.51853C97.3197 9.51853 97.8034 9.60307 98.1886 9.77214C98.5737 9.93182 98.8789 10.162 99.1044 10.4625C99.3392 10.7537 99.5036 11.1059 99.5975 11.5192C99.6914 11.9325 99.7384 12.3881 99.7384 12.8859V17H98.4281V13.1677C98.4281 12.7168 98.3952 12.3317 98.3295 12.0124C98.2731 11.693 98.1745 11.4347 98.0336 11.2374C97.8927 11.0402 97.7048 10.8993 97.47 10.8148C97.2352 10.7208 96.944 10.6739 96.5965 10.6739C96.4556 10.6739 96.31 10.6786 96.1597 10.688C96.0094 10.6973 95.8638 10.7114 95.7229 10.7302C95.5914 10.7396 95.4693 10.7537 95.3566 10.7725C95.2533 10.7913 95.1781 10.8054 95.1312 10.8148V17H93.8208V9.88486ZM108.378 13.3368C108.378 13.9191 108.294 14.4451 108.125 14.9148C107.956 15.3844 107.716 15.7883 107.406 16.1265C107.106 16.4646 106.744 16.7276 106.321 16.9155C105.899 17.0939 105.438 17.1832 104.94 17.1832C104.443 17.1832 103.982 17.0939 103.56 16.9155C103.137 16.7276 102.771 16.4646 102.461 16.1265C102.16 15.7883 101.925 15.3844 101.756 14.9148C101.587 14.4451 101.503 13.9191 101.503 13.3368C101.503 12.7638 101.587 12.2425 101.756 11.7728C101.925 11.2938 102.16 10.8852 102.461 10.5471C102.771 10.2089 103.137 9.95061 103.56 9.77214C103.982 9.58428 104.443 9.49036 104.94 9.49036C105.438 9.49036 105.899 9.58428 106.321 9.77214C106.744 9.95061 107.106 10.2089 107.406 10.5471C107.716 10.8852 107.956 11.2938 108.125 11.7728C108.294 12.2425 108.378 12.7638 108.378 13.3368ZM107.012 13.3368C107.012 12.5102 106.824 11.8574 106.448 11.3783C106.082 10.8899 105.579 10.6457 104.94 10.6457C104.302 10.6457 103.795 10.8899 103.419 11.3783C103.052 11.8574 102.869 12.5102 102.869 13.3368C102.869 14.1633 103.052 14.8208 103.419 15.3093C103.795 15.7883 104.302 16.0278 104.94 16.0278C105.579 16.0278 106.082 15.7883 106.448 15.3093C106.824 14.8208 107.012 14.1633 107.012 13.3368Z" fill="white"/>
    <rect x="15" width="12.7536" height="24.8696" fill="white"/>
    <circle cx="27.4348" cy="12.4348" r="12.4348" fill="white"/>
    <g filter="url(#filter0_d_437_1949)">
        <path d="M15 12.1159L27.1159 0V12.1159H15Z" fill="#1E88E5"/>
    </g>
    <defs>
        <filter id="filter0_d_437_1949" x="-7" y="0" width="56.1159" height="56.116" filterUnits="userSpaceOnUse" color-interpolation-filters="sRGB">
            <feFlood flood-opacity="0" result="BackgroundImageFix"/>
            <feColorMatrix in="SourceAlpha" type="matrix" values="0 0 0 0 0 0 0 0 0 0 0 0 0 0 0 0 0 0 127 0" result="hardAlpha"/>
            <feOffset dy="22"/>
            <feGaussianBlur stdDeviation="11"/>
            <feColorMatrix type="matrix" values="0 0 0 0 0.155868 0 0 0 0 0.370247 0 0 0 0 0.558333 0 0 0 0.05 0"/>
            <feBlend mode="normal" in2="BackgroundImageFix" result="effect1_dropShadow_437_1949"/>
            <feBlend mode="normal" in="SourceGraphic" in2="effect1_dropShadow_437_1949" result="shape"/>
        </filter>
    </defs>
</svg>
