<svg width="13" height="16" viewBox="0 0 13 16" fill="none" xmlns="http://www.w3.org/2000/svg">
    <path d="M3.34696 12.46C3.49363 12.4733 3.66029 12.4866 3.84696 12.5C4.04696 12.5 4.28029 12.5 4.54696 12.5C6.10696 12.5 7.26029 12.1066 8.00696 11.32C8.76696 10.5333 9.14696 9.44665 9.14696 8.05998C9.14696 6.60665 8.78696 5.50665 8.06696 4.75998C7.34696 4.01331 6.20696 3.63998 4.64696 3.63998C4.43363 3.63998 4.21363 3.64665 3.98696 3.65998C3.76029 3.65998 3.54696 3.67331 3.34696 3.69998V12.46ZM12.367 8.05998C12.367 9.25998 12.1803 10.3066 11.807 11.2C11.4336 12.0933 10.9003 12.8333 10.207 13.42C9.52696 14.0066 8.69363 14.4466 7.70696 14.74C6.72029 15.0333 5.61363 15.18 4.38696 15.18C3.82696 15.18 3.17363 15.1533 2.42696 15.1C1.68029 15.06 0.946959 14.9666 0.226959 14.82V1.31998C0.946959 1.18665 1.69363 1.09998 2.46696 1.05998C3.25363 1.00665 3.92696 0.97998 4.48696 0.97998C5.67363 0.97998 6.74696 1.11331 7.70696 1.37998C8.68029 1.64665 9.51363 2.06665 10.207 2.63998C10.9003 3.21331 11.4336 3.94665 11.807 4.83998C12.1803 5.73331 12.367 6.80665 12.367 8.05998Z" fill="#5F7E99"/>
</svg>
